<svg version="1.1" id="Layer_1" xmlns="http://www.w3.org/2000/svg" xmlns:xlink="http://www.w3.org/1999/xlink" x="0px" y="0px"
	 width="100%" viewBox="0 0 865 547" enable-background="new 0 0 865 547" xml:space="preserve">
<path fill="#2F4F70" opacity="1.000000" stroke="none" 
	d="
M235.000000,1.000000 
	C270.020905,1.000000 305.041779,1.000000 340.531342,1.468657 
	C340.312134,23.252714 342.456482,44.387539 344.989441,65.503212 
	C348.023346,90.795052 353.662079,115.551666 360.568542,140.015182 
	C371.198975,177.669250 387.435608,213.007202 405.803284,247.418594 
	C406.855347,249.389618 408.775055,250.897537 409.992584,252.860565 
	C403.357269,256.672302 396.914948,260.075012 390.742645,263.912079 
	C388.688446,265.189117 387.326599,267.579956 385.648254,269.461609 
	C397.713684,267.767609 408.883698,269.203033 420.060913,269.432526 
	C422.322571,273.220703 424.595795,276.620544 426.700439,280.121674 
	C429.867279,285.389679 432.916168,290.728607 436.151184,296.434753 
	C436.589691,303.007477 436.892212,309.182831 437.244110,316.366547 
	C441.281830,315.569946 445.244415,314.788147 449.619080,314.006165 
	C451.129517,314.035187 452.227875,314.064484 453.295837,314.356598 
	C453.511353,315.059418 453.757324,315.499420 454.058594,316.291565 
	C455.491699,318.678162 456.635315,320.929382 458.285309,322.711853 
	C468.867706,334.143921 479.372162,345.658600 490.278412,356.777130 
	C498.890320,365.556641 507.549591,374.412415 517.069763,382.149139 
	C530.819336,393.322998 545.014160,404.034515 559.671448,413.981964 
	C574.724854,424.198212 590.080444,434.183197 606.184326,442.580811 
	C624.484863,452.123901 643.525940,460.380188 662.689331,468.092102 
	C677.429504,474.023987 692.797729,478.439453 708.003174,483.153259 
	C716.211914,485.697968 724.628052,487.617432 733.018311,489.520538 
	C741.877625,491.530121 750.759827,493.574371 759.735901,494.901093 
	C772.503845,496.788269 785.332092,498.525574 798.197693,499.425415 
	C813.040344,500.463593 827.951599,500.521240 842.902832,501.468475 
	C842.980713,510.758453 842.995850,519.584656 842.995239,528.410889 
	C842.994568,539.696350 838.658081,543.997009 827.277710,543.997681 
	C744.177734,544.002441 661.077698,544.005615 577.977722,544.000305 
	C576.316589,544.000183 574.655457,543.891541 572.856079,543.507690 
	C569.285034,541.440552 565.854980,539.693726 562.418579,537.959412 
	C558.231384,535.846008 553.947021,533.905396 549.870422,531.597290 
	C544.005920,528.276855 538.322388,524.638672 532.504089,521.234375 
	C525.437134,517.099609 518.112671,513.370361 511.265015,508.905304 
	C504.397980,504.427582 497.903259,499.361267 491.384186,494.371582 
	C480.974335,486.403870 470.906586,477.970062 460.270508,470.322571 
	C450.067322,462.986298 440.455200,455.092529 431.839203,445.942200 
	C428.148926,442.023102 424.171906,438.364990 420.210236,434.712982 
	C416.216309,431.031342 411.850800,427.727844 408.066406,423.850372 
	C403.766968,419.445221 399.962860,414.559601 395.887848,409.931763 
	C384.862823,397.411133 373.363983,385.274933 362.898621,372.304047 
	C353.641357,360.830627 345.506561,348.450256 336.924347,336.435852 
	C336.081421,335.255798 335.697540,333.754089 334.892761,332.539398 
	C331.183258,326.940582 327.400116,321.390533 323.564545,315.435638 
	C323.337769,312.326996 323.189789,309.605713 323.041840,306.885132 
	C326.718750,306.885132 329.656799,306.885132 332.931732,306.885132 
	C332.931732,309.875763 332.931732,312.623749 332.931732,315.407684 
	C334.221375,315.407684 335.163757,315.407684 336.389832,315.407684 
	C336.389832,308.888245 336.389832,302.563690 336.389832,295.876373 
	C329.895844,296.548981 335.040771,302.177887 332.138397,304.506897 
	C329.556152,304.506897 326.500092,304.506897 323.257019,304.506897 
	C323.257019,301.550812 323.257019,298.836060 323.257019,295.855072 
	C321.832092,296.035706 320.605896,296.191162 319.886627,296.282349 
	C319.886627,299.127258 319.886627,301.566071 319.548706,303.926117 
	C317.677643,302.844849 316.144501,301.842285 314.608521,300.487366 
	C313.068054,298.688202 311.530396,297.241364 309.994537,295.379517 
	C309.740997,293.017517 309.940369,290.854645 309.139160,289.166779 
	C307.258850,285.205750 304.619629,281.601135 302.786316,277.622406 
	C296.878662,264.801544 291.192902,251.878372 285.429932,238.990921 
	C283.823547,235.398544 282.160706,231.828140 280.672729,228.186768 
	C277.200104,219.688599 273.489716,211.267288 270.485443,202.603378 
	C267.029114,192.635712 264.241058,182.436798 261.141113,172.344955 
	C258.891571,165.021500 256.448944,157.752533 254.406799,150.372269 
	C253.441299,146.883041 253.430817,143.139130 252.607025,139.599182 
	C250.559677,130.801422 248.098419,122.096619 246.196716,113.269737 
	C245.224197,108.755692 245.266418,104.033195 244.553589,99.451027 
	C242.792755,88.131958 240.452560,76.887039 239.129074,65.521042 
	C238.100250,56.685635 238.413467,47.702335 237.842606,38.803215 
	C237.033722,26.193249 235.960342,13.600249 235.000000,1.000000 
M413.691406,310.026642 
	C415.175018,302.143250 412.632050,296.952911 406.777771,295.915619 
	C402.028503,295.074097 397.735352,297.532562 396.108948,302.025146 
	C394.328613,306.942963 396.345764,312.619843 400.699371,314.943878 
	C405.276825,317.387390 409.521454,315.951477 413.691406,310.026642 
M341.732697,304.848602 
	C342.061127,311.511444 344.936584,315.367035 350.024109,315.966156 
	C354.376007,316.478668 358.586334,313.697235 359.971832,309.394501 
	C361.802948,303.707947 358.911499,297.516235 353.742065,296.054230 
	C348.184357,294.482422 343.596954,297.576538 341.732697,304.848602 
M389.636719,296.946991 
	C383.664490,294.722076 379.336975,295.696289 376.296844,299.950043 
	C373.713959,303.564056 373.732025,308.694031 376.588715,312.020111 
	C379.707886,315.651764 383.705841,317.053070 388.192322,315.020752 
	C389.635651,314.366913 390.490265,312.413422 391.614197,311.054504 
	C386.411346,314.601471 383.189423,315.091614 380.331238,311.876099 
	C377.470947,308.658203 377.688293,301.931152 380.746857,299.012390 
	C383.771515,296.125977 386.634888,296.837982 391.383545,302.389130 
	C390.845367,300.034332 390.542847,298.710724 389.636719,296.946991 
M422.958557,315.634705 
	C431.208862,315.636871 431.208862,315.636871 431.374542,312.867462 
	C428.756409,313.037445 426.095459,313.210205 423.262146,313.394135 
	C423.262146,307.224152 423.262146,301.705048 423.262146,295.958008 
	C421.883728,296.037201 420.645081,296.108368 419.890350,296.151703 
	C419.890350,302.095795 419.798798,307.663269 419.989716,313.221039 
	C420.018097,314.048157 421.376068,314.829620 422.958557,315.634705 
z"/>
<path fill="#294A6C" opacity="1.000000" stroke="none" 
	d="
M323.643341,315.823059 
	C327.400116,321.390533 331.183258,326.940582 334.892761,332.539398 
	C335.697540,333.754089 336.081421,335.255798 336.924347,336.435852 
	C345.506561,348.450256 353.641357,360.830627 362.898621,372.304047 
	C373.363983,385.274933 384.862823,397.411133 395.887848,409.931763 
	C399.962860,414.559601 403.766968,419.445221 408.066406,423.850372 
	C411.850800,427.727844 416.216309,431.031342 420.210236,434.712982 
	C424.171906,438.364990 428.148926,442.023102 431.839203,445.942200 
	C440.455200,455.092529 450.067322,462.986298 460.270508,470.322571 
	C470.906586,477.970062 480.974335,486.403870 491.384186,494.371582 
	C497.903259,499.361267 504.397980,504.427582 511.265015,508.905304 
	C518.112671,513.370361 525.437134,517.099609 532.504089,521.234375 
	C538.322388,524.638672 544.005920,528.276855 549.870422,531.597290 
	C553.947021,533.905396 558.231384,535.846008 562.418579,537.959412 
	C565.854980,539.693726 569.285034,541.440552 572.392334,543.577209 
	C505.202667,543.984070 438.338562,543.996460 371.474457,543.999878 
	C370.314392,543.999939 369.154327,543.891296 367.924438,543.506714 
	C366.475342,541.541260 365.246613,539.741028 363.691589,538.290649 
	C355.698151,530.835205 347.429535,523.665710 339.608734,516.035828 
	C316.266296,493.263123 294.435516,469.153564 274.556946,443.240051 
	C259.075012,423.058014 243.883286,402.704620 230.922363,380.800903 
	C221.368622,364.655273 211.843842,348.467072 203.065338,331.895691 
	C195.146942,316.947968 187.613968,301.724457 181.083435,286.131531 
	C173.196335,267.299652 166.102768,248.101501 159.492737,228.778992 
	C153.865738,212.330109 149.255768,195.524353 144.497162,178.790787 
	C141.733749,169.073318 139.108246,159.273285 137.230530,149.357040 
	C134.083038,132.734970 131.181839,116.044479 128.918839,99.282631 
	C126.501595,81.378349 124.466377,63.392662 123.159798,45.377571 
	C122.090530,30.634558 122.336884,15.796128 122.000000,1.000000 
	C159.354233,1.000000 196.708450,1.000000 234.531342,1.000000 
	C235.960342,13.600249 237.033722,26.193249 237.842606,38.803215 
	C238.413467,47.702335 238.100250,56.685635 239.129074,65.521042 
	C240.452560,76.887039 242.792755,88.131958 244.553589,99.451027 
	C245.266418,104.033195 245.224197,108.755692 246.196716,113.269737 
	C248.098419,122.096619 250.559677,130.801422 252.607025,139.599182 
	C253.430817,143.139130 253.441299,146.883041 254.406799,150.372269 
	C256.448944,157.752533 258.891571,165.021500 261.141113,172.344955 
	C264.241058,182.436798 267.029114,192.635712 270.485443,202.603378 
	C273.489716,211.267288 277.200104,219.688599 280.672729,228.186768 
	C282.160706,231.828140 283.823547,235.398544 285.429932,238.990921 
	C291.192902,251.878372 296.878662,264.801544 302.786316,277.622406 
	C304.619629,281.601135 307.258850,285.205750 309.139160,289.166779 
	C309.940369,290.854645 309.740997,293.017517 309.567352,295.439331 
	C308.473328,295.921356 307.799713,296.001221 307.144623,295.924042 
	C302.238068,295.346130 300.054352,298.476227 298.580109,302.354340 
	C297.001160,306.508057 297.916534,310.266632 301.213104,313.216187 
	C304.297852,315.976257 308.007294,316.950745 311.791809,314.988770 
	C313.163391,314.277710 313.891479,312.325287 314.913177,310.939301 
	C314.481293,310.665771 314.049438,310.392242 313.617554,310.118713 
	C313.147705,310.523315 312.612854,310.873199 312.218719,311.341522 
	C310.023315,313.950256 307.530975,314.964417 304.484131,312.780640 
	C301.897766,310.926941 301.122009,304.890564 302.686493,301.267303 
	C304.104492,297.983337 306.710968,297.425201 309.621490,298.154938 
	C311.397491,298.600250 312.955444,299.915344 314.611328,300.839752 
	C316.144501,301.842285 317.677643,302.844849 319.624176,304.370728 
	C320.037537,308.331146 320.037537,311.768158 320.037537,315.425140 
	C321.069641,315.539032 322.356506,315.681030 323.643341,315.823059 
M284.089417,310.450317 
	C283.523041,307.272888 285.024811,306.372101 287.981140,306.628479 
	C289.297546,306.742615 290.669281,306.218506 292.015930,305.984070 
	C291.931641,305.532043 291.847382,305.080017 291.763123,304.627991 
	C289.347321,304.627991 286.931549,304.627991 284.418854,304.627991 
	C284.418854,302.352570 284.418854,300.292450 284.418854,297.877167 
	C287.604095,298.169342 290.431061,298.428619 293.210602,298.683563 
	C293.056274,295.581177 289.793762,294.913239 280.790833,296.338745 
	C280.790833,302.726410 280.790833,309.064941 280.790833,315.361664 
	C292.516083,316.364990 293.309387,316.157745 293.118683,313.862305 
	C289.773315,312.933472 286.936340,312.145752 284.089417,310.450317 
z"/>
<path fill="#224467" opacity="1.000000" stroke="none" 
	d="
M121.531342,1.000000 
	C122.336884,15.796128 122.090530,30.634558 123.159798,45.377571 
	C124.466377,63.392662 126.501595,81.378349 128.918839,99.282631 
	C131.181839,116.044479 134.083038,132.734970 137.230530,149.357040 
	C139.108246,159.273285 141.733749,169.073318 144.497162,178.790787 
	C149.255768,195.524353 153.865738,212.330109 159.492737,228.778992 
	C166.102768,248.101501 173.196335,267.299652 181.083435,286.131531 
	C187.613968,301.724457 195.146942,316.947968 203.065338,331.895691 
	C211.843842,348.467072 221.368622,364.655273 230.922363,380.800903 
	C243.883286,402.704620 259.075012,423.058014 274.556946,443.240051 
	C294.435516,469.153564 316.266296,493.263123 339.608734,516.035828 
	C347.429535,523.665710 355.698151,530.835205 363.691589,538.290649 
	C365.246613,539.741028 366.475342,541.541260 367.460754,543.576843 
	C338.480408,543.982483 309.893890,544.014587 281.307434,543.992615 
	C260.536560,543.976624 239.765732,543.888916 218.924500,543.504883 
	C206.401016,527.456787 193.500229,512.066833 181.611176,495.931366 
	C167.615143,476.936371 153.763840,457.756104 141.205688,437.802795 
	C129.005203,418.417694 118.205307,398.121826 107.361191,377.919495 
	C93.028725,351.218414 81.206528,323.371826 70.366760,295.064117 
	C57.010536,260.184692 46.076485,224.617279 37.538212,188.268997 
	C30.044777,156.368668 24.260057,124.199982 20.884760,91.595062 
	C20.513601,88.009735 19.097967,84.532532 18.090134,80.541748 
	C18.007107,58.324520 18.114738,36.569698 17.920767,14.817571 
	C17.866674,8.751531 19.901472,4.204543 25.000000,1.000000 
	C57.020893,1.000000 89.041786,1.000000 121.531342,1.000000 
z"/>
<path fill="#355474" opacity="1.000000" stroke="none" 
	d="
M410.290924,252.620972 
	C408.775055,250.897537 406.855347,249.389618 405.803284,247.418594 
	C387.435608,213.007202 371.198975,177.669250 360.568542,140.015182 
	C353.662079,115.551666 348.023346,90.795052 344.989441,65.503212 
	C342.456482,44.387539 340.312134,23.252714 341.000000,1.468657 
	C371.020905,1.000000 401.041779,1.000000 431.531372,1.467865 
	C433.359833,20.283918 434.276917,38.679493 436.233948,56.963760 
	C437.555115,69.307083 439.692871,81.652695 442.647675,93.707481 
	C445.924469,107.075836 450.543732,120.115288 454.583252,133.296494 
	C461.925415,157.254349 473.154999,179.521774 485.123871,201.358917 
	C491.805634,213.549774 500.159973,224.820160 507.689331,236.551086 
	C519.413940,254.818222 533.874146,270.812714 548.864929,286.376129 
	C551.974548,289.604462 555.011353,292.902954 558.248718,296.538513 
	C558.702271,300.766449 558.988770,304.625031 559.340393,309.360748 
	C553.100037,305.136688 550.647461,297.987427 544.275574,295.814728 
	C544.275574,302.850494 544.275574,309.144623 544.275574,316.080688 
	C551.271057,314.000214 545.822266,307.658813 548.947388,304.130920 
	C551.514648,307.119171 553.944824,310.159393 556.624512,312.960968 
	C557.667480,314.051392 559.272888,314.603851 560.622131,315.401367 
	C561.056946,314.094147 561.782227,312.806061 561.869934,311.475922 
	C562.099365,307.995209 562.050171,304.496124 562.470703,301.020111 
	C564.222778,301.357025 565.616150,301.678192 567.248413,302.230286 
	C569.735962,304.093872 571.984497,305.726562 574.235352,307.718628 
	C574.838928,308.718231 575.440186,309.358521 576.135315,310.432190 
	C573.608643,317.572205 570.606995,312.114563 567.303772,311.431885 
	C568.060120,313.121887 569.118347,314.917786 570.454285,315.155914 
	C572.799316,315.573975 575.314331,315.037842 578.120728,314.972778 
	C584.036499,319.177734 589.620178,323.270935 595.137268,327.452148 
	C615.050781,342.544159 636.119812,356.004395 658.510925,366.868286 
	C678.016235,376.332001 698.286682,384.727722 718.992676,391.069733 
	C741.274719,397.894470 764.285156,402.825226 787.301880,406.613525 
	C805.558716,409.618378 824.304504,409.652252 842.902161,411.469147 
	C842.925110,441.623566 842.879089,471.314117 842.833069,501.004700 
	C827.951599,500.521240 813.040344,500.463593 798.197693,499.425415 
	C785.332092,498.525574 772.503845,496.788269 759.735901,494.901093 
	C750.759827,493.574371 741.877625,491.530121 733.018311,489.520538 
	C724.628052,487.617432 716.211914,485.697968 708.003174,483.153259 
	C692.797729,478.439453 677.429504,474.023987 662.689331,468.092102 
	C643.525940,460.380188 624.484863,452.123901 606.184326,442.580811 
	C590.080444,434.183197 574.724854,424.198212 559.671448,413.981964 
	C545.014160,404.034515 530.819336,393.322998 517.069763,382.149139 
	C507.549591,374.412415 498.890320,365.556641 490.278412,356.777130 
	C479.372162,345.658600 468.867706,334.143921 458.285309,322.711853 
	C456.635315,320.929382 455.491699,318.678162 454.507202,316.182739 
	C457.725922,315.699127 460.573700,315.874420 463.365753,315.557831 
	C464.505676,315.428589 465.524811,314.233673 466.598877,313.523590 
	C466.347198,313.287781 466.095551,313.052002 465.843872,312.816223 
	C463.017395,313.001862 460.190918,313.187500 457.240387,313.381287 
	C457.240387,310.780548 457.240387,308.876129 457.240387,306.862854 
	C459.889618,306.741455 462.240845,306.633728 464.592041,306.525970 
	C464.622467,306.040039 464.652924,305.554108 464.683350,305.068176 
	C462.254730,304.857117 459.826141,304.646027 457.338348,304.429810 
	C457.338348,302.279541 457.338348,300.242889 457.338348,297.791046 
	C460.464600,298.164856 463.147278,298.485626 465.797974,298.802582 
	C465.920532,295.563995 462.827332,294.874298 453.326263,296.419098 
	C453.326263,302.313690 453.326263,308.203735 453.326263,314.093781 
	C452.227875,314.064484 451.129517,314.035187 449.549500,313.664856 
	C448.708160,312.818085 448.348419,312.312378 447.969513,311.451294 
	C445.369263,308.065857 442.788147,305.035828 440.142029,301.605774 
	C440.077026,299.557831 440.077026,297.909912 440.077026,296.037384 
	C438.863129,296.037384 437.439148,296.037384 436.015167,296.037384 
	C432.916168,290.728607 429.867279,285.389679 426.700439,280.121674 
	C424.595795,276.620544 422.322571,273.220703 420.522552,269.344330 
	C429.747711,268.901947 438.575256,268.862396 447.402557,268.887634 
	C456.080994,268.912445 464.759216,269.003052 473.737457,269.066925 
	C472.629181,267.753571 471.386902,265.428284 469.451691,264.162415 
	C465.179657,261.367889 460.374268,259.384491 456.123657,256.562408 
	C449.949036,252.462921 442.095612,250.718628 438.403503,243.052734 
	C434.927704,235.835922 425.800201,234.978058 421.565247,242.636658 
	C418.873810,247.503845 415.118713,250.502335 410.290924,252.620972 
M521.243774,301.034668 
	C521.115295,301.516785 520.994263,302.001007 520.857239,302.480682 
	C519.357483,307.731323 520.975037,312.943176 524.715637,314.904388 
	C528.694275,316.990417 534.077881,315.961243 536.931702,312.569000 
	C539.911316,309.027191 539.948547,302.856995 537.011963,299.249847 
	C532.982239,294.299957 527.023010,294.703339 521.243774,301.034668 
M476.261169,299.889282 
	C480.774567,296.151215 482.147278,296.322083 487.178192,300.887512 
	C486.650696,299.192810 485.990967,297.242279 484.661621,296.513916 
	C480.944305,294.477325 475.502625,296.111542 472.742157,299.630188 
	C469.991119,303.136810 470.033112,308.590698 472.838501,312.131287 
	C475.563385,315.570343 480.600708,317.020447 484.479706,315.000244 
	C485.865753,314.278412 486.627899,312.358704 487.415741,311.325500 
	C484.315369,312.183502 480.923523,314.273468 479.097839,313.330688 
	C476.906250,312.198822 475.664856,308.606842 474.770355,305.835388 
	C474.296265,304.366486 475.428711,302.379120 476.261169,299.889282 
M500.043091,300.078949 
	C501.218689,294.603302 503.792511,301.019012 505.486786,299.343201 
	C506.821716,296.171936 504.925385,295.989105 502.376312,295.924896 
	C491.609619,295.653717 491.610901,295.603241 491.547485,298.816711 
	C493.117493,298.576813 494.753693,298.326813 496.632141,298.039764 
	C496.632141,304.154266 496.632141,309.578857 496.632141,315.003479 
	C497.028656,315.286407 497.425171,315.569366 497.821686,315.852325 
	C498.559784,314.872253 499.870361,313.928223 499.934753,312.905701 
	C500.184509,308.939148 500.037903,304.947571 500.043091,300.078949 
M511.562592,295.952362 
	C510.975220,296.459656 509.889679,296.954895 509.877075,297.476074 
	C509.742126,303.057281 509.769989,308.642609 509.778564,314.226776 
	C509.779205,314.648651 509.973145,315.070190 510.134277,315.722992 
	C511.495972,315.515747 512.716797,315.329956 514.370667,315.078247 
	C514.370667,308.887848 514.378723,302.977478 514.349609,297.067230 
	C514.347961,296.730530 514.121338,296.215210 513.859924,296.100281 
	C513.433167,295.912659 512.891357,295.986572 511.562592,295.952362 
z"/>
<path fill="#3A5978" opacity="1.000000" stroke="none" 
	d="
M558.081665,296.169098 
	C555.011353,292.902954 551.974548,289.604462 548.864929,286.376129 
	C533.874146,270.812714 519.413940,254.818222 507.689331,236.551086 
	C500.159973,224.820160 491.805634,213.549774 485.123871,201.358917 
	C473.154999,179.521774 461.925415,157.254349 454.583252,133.296494 
	C450.543732,120.115288 445.924469,107.075836 442.647675,93.707481 
	C439.692871,81.652695 437.555115,69.307083 436.233948,56.963760 
	C434.276917,38.679493 433.359833,20.283918 432.000000,1.467865 
	C468.354218,1.000000 504.708466,1.000000 541.531311,1.444091 
	C542.987000,14.122692 543.110474,26.504225 545.162476,38.557446 
	C548.278687,56.862156 552.207092,75.074554 556.838013,93.056404 
	C559.216736,102.293037 563.520142,111.105064 567.570190,119.822594 
	C572.891541,131.276367 578.114868,142.876541 584.653992,153.640030 
	C594.383301,169.654694 605.594910,184.658432 618.000061,198.836548 
	C632.329224,215.213623 648.399170,229.679626 665.733521,242.512024 
	C684.274109,256.237427 704.185913,268.114777 726.083191,275.963562 
	C741.377441,281.445618 756.884216,286.347168 772.362793,291.299652 
	C795.287964,298.634735 819.150024,298.657776 842.900757,300.470856 
	C842.923218,337.624939 842.878174,374.315125 842.833130,411.005310 
	C824.304504,409.652252 805.558716,409.618378 787.301880,406.613525 
	C764.285156,402.825226 741.274719,397.894470 718.992676,391.069733 
	C698.286682,384.727722 678.016235,376.332001 658.510925,366.868286 
	C636.119812,356.004395 615.050781,342.544159 595.137268,327.452148 
	C589.620178,323.270935 584.036499,319.177734 578.317078,314.662018 
	C580.946350,309.656158 580.555725,307.563293 576.288025,304.889679 
	C575.028931,304.100891 573.454163,303.722534 572.380737,302.758789 
	C571.425110,301.900787 570.962891,300.493256 570.282898,299.328247 
	C571.734314,298.820007 573.227905,297.827850 574.624451,297.949554 
	C575.844543,298.055908 576.955383,299.415955 578.365295,300.396515 
	C579.108337,296.704041 576.842896,295.966370 574.205139,295.793945 
	C569.848694,295.509247 567.205566,297.377686 567.009521,301.999390 
	C565.616150,301.678192 564.222778,301.357025 562.389343,300.660950 
	C561.949280,299.010559 561.949280,297.735016 561.949280,296.169098 
	C560.655823,296.169098 559.368713,296.169098 558.081665,296.169098 
z"/>
<path fill="#425F7D" opacity="1.000000" stroke="none" 
	d="
M842.833252,300.006927 
	C819.150024,298.657776 795.287964,298.634735 772.362793,291.299652 
	C756.884216,286.347168 741.377441,281.445618 726.083191,275.963562 
	C704.185913,268.114777 684.274109,256.237427 665.733521,242.512024 
	C648.399170,229.679626 632.329224,215.213623 618.000061,198.836548 
	C605.594910,184.658432 594.383301,169.654694 584.653992,153.640030 
	C578.114868,142.876541 572.891541,131.276367 567.570190,119.822594 
	C563.520142,111.105064 559.216736,102.293037 556.838013,93.056404 
	C552.207092,75.074554 548.278687,56.862156 545.162476,38.557446 
	C543.110474,26.504225 542.987000,14.122692 542.000000,1.444091 
	C584.020874,1.000000 626.041809,1.000000 668.531616,1.438393 
	C669.660522,8.967543 670.144287,16.080011 671.014648,23.144857 
	C673.330566,41.943424 679.100769,59.791000 687.333740,76.730324 
	C693.347961,89.104546 701.095642,100.414932 710.106018,111.001808 
	C722.064270,125.052284 735.517883,137.299789 751.121826,146.878387 
	C779.160828,164.090332 809.737549,173.163239 842.900024,173.472321 
	C842.976440,188.222290 843.010315,202.508347 842.991272,216.794357 
	C842.954285,244.531891 842.887634,272.269409 842.833252,300.006927 
z"/>
<path fill="#FFFFFF" opacity="1.000000" stroke="none" 
	d="
M842.900757,300.470856 
	C842.887634,272.269409 842.954285,244.531891 842.991272,216.794357 
	C843.010315,202.508347 842.976440,188.222290 842.974487,173.008331 
	C842.983215,120.682434 842.893066,69.284103 843.096924,17.886942 
	C843.123230,11.248865 842.126282,5.519032 837.000000,1.000000 
	C846.664551,1.000000 856.329163,1.000000 865.995239,1.000000 
	C865.996826,183.291565 865.996826,365.583130 865.996826,547.937378 
	C577.771179,547.937378 289.542328,547.937378 1.156750,547.937378 
	C1.156750,365.666779 1.156750,183.333405 1.156750,1.000000 
	C8.732464,1.000000 16.397541,1.000000 24.531307,1.000000 
	C19.901472,4.204543 17.866674,8.751531 17.920767,14.817571 
	C18.114738,36.569698 18.007107,58.324520 18.019335,81.005371 
	C18.012690,231.041122 17.998219,380.149841 17.992128,529.258545 
	C17.991714,539.413330 22.703835,544.008423 33.077991,544.008423 
	C93.554504,544.008118 154.031006,544.000427 214.507523,543.986633 
	C216.003326,543.986328 217.499084,543.886536 218.994873,543.833191 
	C239.765732,543.888916 260.536560,543.976624 281.307434,543.992615 
	C309.893890,544.014587 338.480408,543.982483 367.530579,543.903442 
	C369.154327,543.891296 370.314392,543.999939 371.474457,543.999878 
	C438.338562,543.996460 505.202667,543.984070 572.530518,543.903076 
	C574.655457,543.891541 576.316589,544.000183 577.977722,544.000305 
	C661.077698,544.005615 744.177734,544.002441 827.277710,543.997681 
	C838.658081,543.997009 842.994568,539.696350 842.995239,528.410889 
	C842.995850,519.584656 842.980713,510.758453 842.902832,501.468475 
	C842.879089,471.314117 842.925110,441.623566 842.902100,411.469116 
	C842.878174,374.315125 842.923218,337.624939 842.900757,300.470856 
z"/>
<path fill="#496582" opacity="1.000000" stroke="none" 
	d="
M836.531372,1.000000 
	C842.126282,5.519032 843.123230,11.248865 843.096924,17.886942 
	C842.893066,69.284103 842.983215,120.682434 842.907959,172.544403 
	C809.737549,173.163239 779.160828,164.090332 751.121826,146.878387 
	C735.517883,137.299789 722.064270,125.052284 710.106018,111.001808 
	C701.095642,100.414932 693.347961,89.104546 687.333740,76.730324 
	C679.100769,59.791000 673.330566,41.943424 671.014648,23.144857 
	C670.144287,16.080011 669.660522,8.967543 669.000244,1.438393 
	C724.687561,1.000000 780.375122,1.000000 836.531372,1.000000 
z"/>
<path fill="#F0F2F5" opacity="1.000000" stroke="none" 
	d="
M409.992584,252.860565 
	C415.118713,250.502335 418.873810,247.503845 421.565247,242.636658 
	C425.800201,234.978058 434.927704,235.835922 438.403503,243.052734 
	C442.095612,250.718628 449.949036,252.462921 456.123657,256.562408 
	C460.374268,259.384491 465.179657,261.367889 469.451691,264.162415 
	C471.386902,265.428284 472.629181,267.753571 473.737457,269.066925 
	C464.759216,269.003052 456.080994,268.912445 447.402557,268.887634 
	C438.575256,268.862396 429.747711,268.901947 420.458649,269.001343 
	C408.883698,269.203033 397.713684,267.767609 385.648254,269.461609 
	C387.326599,267.579956 388.688446,265.189117 390.742645,263.912079 
	C396.914948,260.075012 403.357269,256.672302 409.992584,252.860565 
M455.390869,266.804779 
	C458.264862,266.804779 461.138855,266.804779 464.012848,266.804779 
	C453.320190,259.718079 442.525116,253.543213 431.594025,247.619278 
	C430.528748,247.041977 428.424011,247.639160 427.142456,248.326492 
	C419.370697,252.494644 411.691620,256.836060 403.995331,261.144165 
	C401.210846,262.702820 398.464386,264.329346 395.700562,265.924896 
	C395.833496,266.218292 395.966461,266.511688 396.099396,266.805084 
	C415.540649,266.805084 434.981934,266.805084 455.390869,266.804779 
z"/>
<path fill="#EBEEF1" opacity="1.000000" stroke="none" 
	d="
M413.500793,310.352203 
	C409.521454,315.951477 405.276825,317.387390 400.699371,314.943878 
	C396.345764,312.619843 394.328613,306.942963 396.108948,302.025146 
	C397.735352,297.532562 402.028503,295.074097 406.777771,295.915619 
	C412.632050,296.952911 415.175018,302.143250 413.500793,310.352203 
M407.710602,313.529968 
	C411.406006,309.729462 411.977356,305.184845 409.581116,300.783966 
	C408.686646,299.141266 405.655365,297.623535 403.756775,297.795654 
	C400.436646,298.096649 398.472198,303.648987 399.573853,308.222229 
	C400.496399,312.051880 402.003693,315.297485 407.710602,313.529968 
z"/>
<path fill="#EAEDF0" opacity="1.000000" stroke="none" 
	d="
M341.775330,304.472687 
	C343.596954,297.576538 348.184357,294.482422 353.742065,296.054230 
	C358.911499,297.516235 361.802948,303.707947 359.971832,309.394501 
	C358.586334,313.697235 354.376007,316.478668 350.024109,315.966156 
	C344.936584,315.367035 342.061127,311.511444 341.775330,304.472687 
M356.239166,301.653168 
	C354.717712,298.175415 352.467743,295.905731 348.569916,298.242126 
	C344.467712,300.701019 344.401306,310.602295 348.415405,313.329773 
	C351.279144,315.275696 354.220184,314.626282 355.377777,311.473633 
	C356.404358,308.677643 356.205994,305.431854 356.239166,301.653168 
z"/>
<path fill="#E4E8ED" opacity="1.000000" stroke="none" 
	d="
M323.564545,315.435669 
	C322.356506,315.681030 321.069641,315.539032 320.037537,315.425140 
	C320.037537,311.768158 320.037537,308.331146 319.962097,304.449463 
	C319.886627,301.566071 319.886627,299.127258 319.886627,296.282349 
	C320.605896,296.191162 321.832092,296.035706 323.257019,295.855072 
	C323.257019,298.836060 323.257019,301.550812 323.257019,304.506897 
	C326.500092,304.506897 329.556152,304.506897 332.138397,304.506897 
	C335.040771,302.177887 329.895844,296.548981 336.389832,295.876373 
	C336.389832,302.563690 336.389832,308.888245 336.389832,315.407684 
	C335.163757,315.407684 334.221375,315.407684 332.931732,315.407684 
	C332.931732,312.623749 332.931732,309.875763 332.931732,306.885132 
	C329.656799,306.885132 326.718750,306.885132 323.041840,306.885132 
	C323.189789,309.605713 323.337769,312.326996 323.564545,315.435669 
z"/>
<path fill="#E0E4E9" opacity="1.000000" stroke="none" 
	d="
M453.295837,314.356598 
	C453.326263,308.203735 453.326263,302.313690 453.326263,296.419098 
	C462.827332,294.874298 465.920532,295.563995 465.797974,298.802582 
	C463.147278,298.485626 460.464600,298.164856 457.338348,297.791046 
	C457.338348,300.242889 457.338348,302.279541 457.338348,304.429810 
	C459.826141,304.646027 462.254730,304.857117 464.683350,305.068176 
	C464.652924,305.554108 464.622467,306.040039 464.592041,306.525970 
	C462.240845,306.633728 459.889618,306.741455 457.240387,306.862854 
	C457.240387,308.876129 457.240387,310.780548 457.240387,313.381287 
	C460.190918,313.187500 463.017395,313.001862 465.843872,312.816223 
	C466.095551,313.052002 466.347198,313.287781 466.598877,313.523590 
	C465.524811,314.233673 464.505676,315.428589 463.365753,315.557831 
	C460.573700,315.874420 457.725922,315.699127 454.451904,315.830597 
	C453.757324,315.499420 453.511353,315.059418 453.295837,314.356598 
z"/>
<path fill="#EBEEF1" opacity="1.000000" stroke="none" 
	d="
M389.938538,297.167053 
	C390.542847,298.710724 390.845367,300.034332 391.383545,302.389130 
	C386.634888,296.837982 383.771515,296.125977 380.746857,299.012390 
	C377.688293,301.931152 377.470947,308.658203 380.331238,311.876099 
	C383.189423,315.091614 386.411346,314.601471 391.614197,311.054504 
	C390.490265,312.413422 389.635651,314.366913 388.192322,315.020752 
	C383.705841,317.053070 379.707886,315.651764 376.588715,312.020111 
	C373.732025,308.694031 373.713959,303.564056 376.296844,299.950043 
	C379.336975,295.696289 383.664490,294.722076 389.938538,297.167053 
z"/>
<path fill="#E6EAEE" opacity="1.000000" stroke="none" 
	d="
M314.608521,300.487366 
	C312.955444,299.915344 311.397491,298.600250 309.621490,298.154938 
	C306.710968,297.425201 304.104492,297.983337 302.686493,301.267303 
	C301.122009,304.890564 301.897766,310.926941 304.484131,312.780640 
	C307.530975,314.964417 310.023315,313.950256 312.218719,311.341522 
	C312.612854,310.873199 313.147705,310.523315 313.617554,310.118713 
	C314.049438,310.392242 314.481293,310.665771 314.913177,310.939301 
	C313.891479,312.325287 313.163391,314.277710 311.791809,314.988770 
	C308.007294,316.950745 304.297852,315.976257 301.213104,313.216187 
	C297.916534,310.266632 297.001160,306.508057 298.580109,302.354340 
	C300.054352,298.476227 302.238068,295.346130 307.144623,295.924042 
	C307.799713,296.001221 308.473328,295.921356 309.565552,295.854370 
	C311.530396,297.241364 313.068054,298.688202 314.608521,300.487366 
z"/>
<path fill="#E6EAEE" opacity="1.000000" stroke="none" 
	d="
M422.538727,315.633484 
	C421.376068,314.829620 420.018097,314.048157 419.989716,313.221039 
	C419.798798,307.663269 419.890350,302.095795 419.890350,296.151703 
	C420.645081,296.108368 421.883728,296.037201 423.262146,295.958008 
	C423.262146,301.705048 423.262146,307.224152 423.262146,313.394135 
	C426.095459,313.210205 428.756409,313.037445 431.374542,312.867462 
	C431.208862,315.636871 431.208862,315.636871 422.538727,315.633484 
z"/>
<path fill="#E6EAEE" opacity="1.000000" stroke="none" 
	d="
M447.988647,311.806641 
	C448.348419,312.312378 448.708160,312.818085 449.137451,313.665100 
	C445.244415,314.788147 441.281830,315.569946 437.244110,316.366547 
	C436.892212,309.182831 436.589691,303.007477 436.151184,296.434753 
	C437.439148,296.037384 438.863129,296.037384 440.077026,296.037384 
	C440.077026,297.909912 440.077026,299.557831 440.081970,302.065063 
	C440.086945,306.313904 440.086945,309.703430 440.086945,314.098816 
	C443.259277,313.178558 445.623962,312.492615 447.988647,311.806641 
z"/>
<path fill="#DBE1E6" opacity="1.000000" stroke="none" 
	d="
M284.094360,310.904175 
	C286.936340,312.145752 289.773315,312.933472 293.118683,313.862305 
	C293.309387,316.157745 292.516083,316.364990 280.790833,315.361664 
	C280.790833,309.064941 280.790833,302.726410 280.790833,296.338745 
	C289.793762,294.913239 293.056274,295.581177 293.210602,298.683563 
	C290.431061,298.428619 287.604095,298.169342 284.418854,297.877167 
	C284.418854,300.292450 284.418854,302.352570 284.418854,304.627991 
	C286.931549,304.627991 289.347321,304.627991 291.763123,304.627991 
	C291.847382,305.080017 291.931641,305.532043 292.015930,305.984070 
	C290.669281,306.218506 289.297546,306.742615 287.981140,306.628479 
	C285.024811,306.372101 283.523041,307.272888 284.094360,310.904175 
z"/>
<path fill="#1C3F63" opacity="1.000000" stroke="none" 
	d="
M218.924500,543.504883 
	C217.499084,543.886536 216.003326,543.986328 214.507523,543.986633 
	C154.031006,544.000427 93.554504,544.008118 33.077991,544.008423 
	C22.703835,544.008423 17.991714,539.413330 17.992128,529.258545 
	C17.998219,380.149841 18.012690,231.041122 18.095963,81.468796 
	C19.097967,84.532532 20.513601,88.009735 20.884760,91.595062 
	C24.260057,124.199982 30.044777,156.368668 37.538212,188.268997 
	C46.076485,224.617279 57.010536,260.184692 70.366760,295.064117 
	C81.206528,323.371826 93.028725,351.218414 107.361191,377.919495 
	C118.205307,398.121826 129.005203,418.417694 141.205688,437.802795 
	C153.763840,457.756104 167.615143,476.936371 181.611176,495.931366 
	C193.500229,512.066833 206.401016,527.456787 218.924500,543.504883 
z"/>
<path fill="#E6EAEE" opacity="1.000000" stroke="none" 
	d="
M558.248718,296.538513 
	C559.368713,296.169098 560.655823,296.169098 561.949280,296.169098 
	C561.949280,297.735016 561.949280,299.010559 562.030640,300.645203 
	C562.050171,304.496124 562.099365,307.995209 561.869934,311.475922 
	C561.782227,312.806061 561.056946,314.094147 560.622131,315.401367 
	C559.272888,314.603851 557.667480,314.051392 556.624512,312.960968 
	C553.944824,310.159393 551.514648,307.119171 548.947388,304.130920 
	C545.822266,307.658813 551.271057,314.000214 544.275574,316.080688 
	C544.275574,309.144623 544.275574,302.850494 544.275574,295.814728 
	C550.647461,297.987427 553.100037,305.136688 559.340393,309.360748 
	C558.988770,304.625031 558.702271,300.766449 558.248718,296.538513 
z"/>
<path fill="#EAEDF0" opacity="1.000000" stroke="none" 
	d="
M521.387878,300.666199 
	C527.023010,294.703339 532.982239,294.299957 537.011963,299.249847 
	C539.948547,302.856995 539.911316,309.027191 536.931702,312.569000 
	C534.077881,315.961243 528.694275,316.990417 524.715637,314.904388 
	C520.975037,312.943176 519.357483,307.731323 520.857239,302.480682 
	C520.994263,302.001007 521.115295,301.516785 521.387878,300.666199 
M535.922791,305.528259 
	C535.403198,301.814209 534.734680,297.748047 530.185608,297.427795 
	C526.386658,297.160400 525.105347,300.504303 524.469543,303.776306 
	C523.552368,308.496033 525.730957,313.424225 529.023193,314.151337 
	C532.628967,314.947662 534.697998,312.580994 535.922791,305.528259 
z"/>
<path fill="#E4E8ED" opacity="1.000000" stroke="none" 
	d="
M567.248413,302.230286 
	C567.205566,297.377686 569.848694,295.509247 574.205139,295.793945 
	C576.842896,295.966370 579.108337,296.704041 578.365295,300.396515 
	C576.955383,299.415955 575.844543,298.055908 574.624451,297.949554 
	C573.227905,297.827850 571.734314,298.820007 570.282898,299.328247 
	C570.962891,300.493256 571.425110,301.900787 572.380737,302.758789 
	C573.454163,303.722534 575.028931,304.100891 576.288025,304.889679 
	C580.555725,307.563293 580.946350,309.656158 577.954468,314.590637 
	C575.314331,315.037842 572.799316,315.573975 570.454285,315.155914 
	C569.118347,314.917786 568.060120,313.121887 567.303772,311.431885 
	C570.606995,312.114563 573.608643,317.572205 576.160034,310.080505 
	C575.471619,308.650055 574.852356,308.004639 574.233093,307.359253 
	C571.984497,305.726562 569.735962,304.093872 567.248413,302.230286 
z"/>
<path fill="#EBEEF1" opacity="1.000000" stroke="none" 
	d="
M476.048523,300.257538 
	C475.428711,302.379120 474.296265,304.366486 474.770355,305.835388 
	C475.664856,308.606842 476.906250,312.198822 479.097839,313.330688 
	C480.923523,314.273468 484.315369,312.183502 487.415741,311.325500 
	C486.627899,312.358704 485.865753,314.278412 484.479706,315.000244 
	C480.600708,317.020447 475.563385,315.570343 472.838501,312.131287 
	C470.033112,308.590698 469.991119,303.136810 472.742157,299.630188 
	C475.502625,296.111542 480.944305,294.477325 484.661621,296.513916 
	C485.990967,297.242279 486.650696,299.192810 487.178192,300.887512 
	C482.147278,296.322083 480.774567,296.151215 476.048523,300.257538 
z"/>
<path fill="#F0F2F5" opacity="1.000000" stroke="none" 
	d="
M500.040955,300.522156 
	C500.037903,304.947571 500.184509,308.939148 499.934753,312.905701 
	C499.870361,313.928223 498.559784,314.872253 497.821686,315.852325 
	C497.425171,315.569366 497.028656,315.286407 496.632141,315.003479 
	C496.632141,309.578857 496.632141,304.154266 496.632141,298.039764 
	C494.753693,298.326813 493.117493,298.576813 491.547485,298.816711 
	C491.610901,295.603241 491.609619,295.653717 502.376312,295.924896 
	C504.925385,295.989105 506.821716,296.171936 505.486786,299.343201 
	C503.792511,301.019012 501.218689,294.603302 500.040955,300.522156 
z"/>
<path fill="#EBEEF1" opacity="1.000000" stroke="none" 
	d="
M511.980347,295.951233 
	C512.891357,295.986572 513.433167,295.912659 513.859924,296.100281 
	C514.121338,296.215210 514.347961,296.730530 514.349609,297.067230 
	C514.378723,302.977478 514.370667,308.887848 514.370667,315.078247 
	C512.716797,315.329956 511.495972,315.515747 510.134277,315.722992 
	C509.973145,315.070190 509.779205,314.648651 509.778564,314.226776 
	C509.769989,308.642609 509.742126,303.057281 509.877075,297.476074 
	C509.889679,296.954895 510.975220,296.459656 511.980347,295.951233 
z"/>
<path fill="#2F4F70" opacity="1.000000" stroke="none" 
	d="
M447.969513,311.451263 
	C445.623962,312.492615 443.259277,313.178558 440.086945,314.098816 
	C440.086945,309.703430 440.086945,306.313904 440.146973,302.465088 
	C442.788147,305.035828 445.369263,308.065857 447.969513,311.451263 
z"/>
<path fill="#3A5978" opacity="1.000000" stroke="none" 
	d="
M574.235352,307.718628 
	C574.852356,308.004639 575.471619,308.650055 576.066162,309.647125 
	C575.440186,309.358521 574.838928,308.718231 574.235352,307.718628 
z"/>
<path fill="#3B5978" opacity="1.000000" stroke="none" 
	d="
M454.907043,266.804932 
	C434.981934,266.805084 415.540649,266.805084 396.099396,266.805084 
	C395.966461,266.511688 395.833496,266.218292 395.700562,265.924896 
	C398.464386,264.329346 401.210846,262.702820 403.995331,261.144165 
	C411.691620,256.836060 419.370697,252.494644 427.142456,248.326492 
	C428.424011,247.639160 430.528748,247.041977 431.594025,247.619278 
	C442.525116,253.543213 453.320190,259.718079 464.012848,266.804779 
	C461.138855,266.804779 458.264862,266.804779 454.907043,266.804932 
z"/>
<path fill="#355474" opacity="1.000000" stroke="none" 
	d="
M407.351044,313.713013 
	C402.003693,315.297485 400.496399,312.051880 399.573853,308.222229 
	C398.472198,303.648987 400.436646,298.096649 403.756775,297.795654 
	C405.655365,297.623535 408.686646,299.141266 409.581116,300.783966 
	C411.977356,305.184845 411.406006,309.729462 407.351044,313.713013 
z"/>
<path fill="#355474" opacity="1.000000" stroke="none" 
	d="
M356.393738,302.018921 
	C356.205994,305.431854 356.404358,308.677643 355.377777,311.473633 
	C354.220184,314.626282 351.279144,315.275696 348.415405,313.329773 
	C344.401306,310.602295 344.467712,300.701019 348.569916,298.242126 
	C352.467743,295.905731 354.717712,298.175415 356.393738,302.018921 
z"/>
<path fill="#3B5978" opacity="1.000000" stroke="none" 
	d="
M535.890381,305.930725 
	C534.697998,312.580994 532.628967,314.947662 529.023193,314.151337 
	C525.730957,313.424225 523.552368,308.496033 524.469543,303.776306 
	C525.105347,300.504303 526.386658,297.160400 530.185608,297.427795 
	C534.734680,297.748047 535.403198,301.814209 535.890381,305.930725 
z"/>
</svg>