<?xml version="1.0" standalone="no"?>
<!DOCTYPE svg PUBLIC "-//W3C//DTD SVG 20010904//EN"
 "http://www.w3.org/TR/2001/REC-SVG-20010904/DTD/svg10.dtd">
<svg version="1.0" xmlns="http://www.w3.org/2000/svg"
 width="360.000000pt" height="202.000000pt" viewBox="0 0 360.000000 202.000000"
 preserveAspectRatio="xMidYMid meet">

<g transform="translate(0.000000,202.000000) scale(0.100000,-0.100000)"
fill="#000000" stroke="none">
<path d="M1755 2008 c-81 -28 -139 -111 -133 -190 4 -62 30 -59 40 4 13 95 69
148 155 148 57 0 104 -25 134 -72 16 -26 19 -45 16 -90 -4 -69 -33 -111 -117
-168 l-60 -41 0 -95 c0 -67 -4 -96 -12 -98 -7 -2 -35 -9 -62 -15 -94 -23 -175
-104 -268 -269 -82 -146 -120 -172 -818 -555 -201 -110 -395 -219 -432 -243
-139 -89 -191 -158 -192 -251 0 -70 10 -79 68 -59 42 14 222 16 1726 16 1504
0 1684 -2 1726 -16 58 -19 67 -12 67 58 1 91 -45 155 -179 245 -32 22 -205
120 -384 218 -611 334 -777 434 -824 499 -13 17 -39 61 -59 97 -84 153 -172
239 -267 262 l-50 12 0 85 c0 83 1 86 28 102 15 9 53 41 83 70 62 60 87 120
74 185 -23 124 -147 200 -260 161z m141 -1012 c66 -35 1392 -855 1416 -876 5
-3 -676 -6 -1512 -6 l-1519 0 32 21 c18 12 320 201 672 420 627 391 785 485
815 485 8 0 51 -20 96 -44z"/>
</g>
</svg>
