<?xml version="1.0" encoding="utf-8"?>
<!-- Generator: Adobe Illustrator 25.3.1, SVG Export Plug-In . SVG Version: 6.00 Build 0)  -->
<svg version="1.1" id="Layer_1" xmlns="http://www.w3.org/2000/svg" xmlns:xlink="http://www.w3.org/1999/xlink" x="0px" y="0px"
	 viewBox="0 0 700 700" style="enable-background:new 0 0 700 700;" xml:space="preserve">
<style type="text/css">
	.st0{fill-rule:evenodd;clip-rule:evenodd;}
</style>
<g>
	<path class="st0" d="M284.6,372.5l3.2,16.8l118.3,0c5.9,0,11.6,2.4,15.8,6.6c4.2,4.2,6.6,9.9,6.6,15.8c0,5.9-2.4,11.6-6.6,15.8
		c-4.2,4.2-9.9,6.6-15.8,6.6c-5.9,0-11.6-2.4-15.8-6.6c-4.2-4.2-6.6-9.9-6.6-15.8c0-3.9,1.1-7.8,3.1-11.2h-90.2
		c2,3.4,3.1,7.3,3.1,11.2c0,5.9-2.3,11.5-6.5,15.7c-4.1,4.2-9.8,6.6-15.6,6.7c-5.9,0.1-11.6-2.2-15.8-6.2c-4.2-4.1-6.7-9.7-6.9-15.6
		c-0.2-5.9,2-11.6,6-15.9c4-4.3,9.6-6.8,15.5-7.1l-26.1-134.4h-17.8v-11.2h28l5.6,33.6l168,5.6l-22.4,89.6L284.6,372.5z
		 M406.1,422.9c4.5,0,8.6-2.7,10.3-6.9c1.7-4.2,0.8-9-2.4-12.2s-8-4.2-12.2-2.4c-4.2,1.7-6.9,5.8-6.9,10.3c0,3,1.2,5.8,3.3,7.9
		C400.3,421.8,403.1,422.9,406.1,422.9L406.1,422.9z M266.1,411.7c0,4.5,2.7,8.6,6.9,10.3c4.2,1.7,9,0.8,12.2-2.4s4.2-8,2.4-12.2
		c-1.7-4.2-5.8-6.9-10.3-6.9C271.1,400.5,266.1,405.5,266.1,411.7L266.1,411.7z M268.3,288.5l14.2,72.8l120.1,0l17.9-67.8
		L268.3,288.5z"/>
</g>
</svg>
